<svg xmlns="http://www.w3.org/2000/svg" width="429.658" height="429.658"><path d="M235.252 13.406l-.447-.998C231.388 4.786 223.202-.446 215.128.033l-.3.016-.302-.016c-.332-.022-.67-.033-1.002-.033-7.706 0-15.386 5.104-18.674 12.413l-.452.998L13.662 176.079c-6.871 6.183-6.495 12.657-4.971 16.999 2.661 7.559 10.361 13.373 18.313 13.82l1.592.297c.68.168 1.356.348 2.095.427 23.036 2.381 45.519 2.876 64.472 3.042l5.154.048V407.93c0 11.023 7.221 15.152 11.522 16.635l.967.33.77.671c3.105 2.717 7.02 4.093 11.644 4.093h179.215c4.626 0 8.541-1.376 11.639-4.093l.771-.671.965-.33c4.307-1.482 11.532-5.611 11.532-16.635V210.706l5.149-.048c18.961-.17 41.446-.666 64.475-3.042.731-.079 1.407-.254 2.082-.422l1.604-.302c7.952-.447 15.65-6.262 18.312-13.82 1.528-4.336 1.899-10.811-4.972-16.998L235.252 13.406zm108.862 159.959c-11.105.18-22.216.254-33.337.254-5.153 0-9.363 1.607-12.507 4.768-3.372 3.4-5.296 8.48-5.266 13.932l.005.65-.157.629c-.437 1.767-.64 3.336-.64 4.928v194.001H137.458V198.526c0-1.597-.201-3.161-.638-4.928l-.157-.629.005-.65c.031-5.456-1.892-10.537-5.271-13.937-3.141-3.161-7.353-4.763-12.507-4.768-11.124 0-22.224-.074-33.337-.254l-13.223-.218L214.834 44.897l142.503 128.249-13.223.219z"/></svg>