<svg width="920" height="729" viewBox="0 0 920 729" fill="none" xmlns="http://www.w3.org/2000/svg">
<g clip-path="url(#clip0)">
<path d="M738.666 172.947H734.667V63.4019C734.667 55.0759 733.027 46.8314 729.841 39.1391C726.654 31.4468 721.984 24.4574 716.097 18.57C710.209 12.6826 703.22 8.01244 695.528 4.82619C687.836 1.63995 679.591 3.93981e-06 671.265 1.54799e-10H439.178C422.363 -3.71302e-05 406.237 6.67975 394.346 18.5699C382.456 30.46 375.776 46.5865 375.776 63.4017V664.376C375.776 681.191 382.456 697.318 394.346 709.208C406.236 721.098 422.363 727.778 439.178 727.778H671.265C688.08 727.778 704.206 721.098 716.097 709.208C727.987 697.318 734.667 681.192 734.667 664.376V250.923H738.666L738.666 172.947Z" fill="#E6E6E6"/>
<path d="M721.172 63.8443V663.934C721.172 676.492 716.183 688.536 707.303 697.416C698.423 706.295 686.38 711.284 673.822 711.284H440.622C428.064 711.284 416.021 706.295 407.141 697.416C398.261 688.536 393.272 676.492 393.272 663.934V63.8443C393.272 51.2864 398.261 39.2429 407.141 30.3631C416.021 21.4833 428.064 16.4946 440.622 16.4943H468.912C467.522 19.9103 466.992 23.6155 467.37 27.2841C467.748 30.9527 469.022 34.4722 471.079 37.533C473.137 40.5938 475.915 43.1022 479.169 44.8374C482.423 46.5727 486.054 47.4816 489.742 47.4843H622.702C626.39 47.4816 630.021 46.5726 633.275 44.8374C636.529 43.1021 639.307 40.5938 641.365 37.5329C643.422 34.4721 644.696 30.9527 645.073 27.2841C645.451 23.6155 644.922 19.9103 643.532 16.4943H673.822C686.38 16.4946 698.423 21.4833 707.303 30.3631C716.183 39.2429 721.172 51.2864 721.172 63.8443V63.8443Z" fill="white"/>
<path d="M453.053 72.1511C444.566 72.1511 436.426 75.5225 430.425 81.5236C424.424 87.5248 421.053 95.6641 421.053 104.151C421.053 112.638 424.424 120.777 430.425 126.778C436.426 132.78 444.566 136.151 453.052 136.151H453.053C461.54 136.151 469.679 132.78 475.68 126.779C481.681 120.777 485.053 112.638 485.053 104.151C485.053 95.6642 481.681 87.5249 475.68 81.5237C469.679 75.5225 461.54 72.1511 453.053 72.1511Z" fill="#E6E6E6"/>
<path d="M685.391 131.151H517.391C515.27 131.151 513.235 130.308 511.734 128.808C510.234 127.308 509.391 125.273 509.391 123.151C509.391 121.03 510.234 118.995 511.734 117.494C513.235 115.994 515.27 115.151 517.391 115.151H685.391C687.513 115.151 689.548 115.994 691.048 117.494C692.548 118.995 693.391 121.03 693.391 123.151C693.391 125.273 692.548 127.308 691.048 128.808C689.548 130.308 687.513 131.151 685.391 131.151Z" fill="#E6E6E6"/>
<path d="M570.391 97.1513H517.391C515.27 97.1513 513.235 96.3085 511.734 94.8082C510.234 93.3079 509.391 91.273 509.391 89.1513C509.391 87.0296 510.234 84.9948 511.734 83.4945C513.235 81.9942 515.27 81.1513 517.391 81.1513H570.391C572.513 81.1513 574.548 81.9942 576.048 83.4945C577.548 84.9948 578.391 87.0296 578.391 89.1513C578.391 91.273 577.548 93.3079 576.048 94.8082C574.548 96.3085 572.513 97.1513 570.391 97.1513Z" fill="#E6E6E6"/>
<path d="M453.053 206.151C444.566 206.151 436.426 209.522 430.425 215.524C424.424 221.525 421.053 229.664 421.053 238.151C421.053 246.638 424.424 254.777 430.425 260.778C436.426 266.78 444.566 270.151 453.052 270.151H453.053C461.54 270.151 469.679 266.78 475.68 260.779C481.681 254.777 485.053 246.638 485.053 238.151C485.053 229.664 481.681 221.525 475.68 215.524C469.679 209.523 461.54 206.151 453.053 206.151Z" fill="#E6E6E6"/>
<path d="M685.391 265.151H517.391C515.27 265.151 513.235 264.308 511.734 262.808C510.234 261.308 509.391 259.273 509.391 257.151C509.391 255.03 510.234 252.995 511.734 251.494C513.235 249.994 515.27 249.151 517.391 249.151H685.391C687.513 249.151 689.548 249.994 691.048 251.494C692.548 252.995 693.391 255.03 693.391 257.151C693.391 259.273 692.548 261.308 691.048 262.808C689.548 264.308 687.513 265.151 685.391 265.151Z" fill="#E6E6E6"/>
<path d="M570.391 231.151H517.391C515.27 231.151 513.235 230.308 511.734 228.808C510.234 227.308 509.391 225.273 509.391 223.151C509.391 221.03 510.234 218.995 511.734 217.494C513.235 215.994 515.27 215.151 517.391 215.151H570.391C572.513 215.151 574.548 215.994 576.048 217.494C577.548 218.995 578.391 221.03 578.391 223.151C578.391 225.273 577.548 227.308 576.048 228.808C574.548 230.308 572.513 231.151 570.391 231.151Z" fill="#E6E6E6"/>
<path d="M453.053 474.151C444.566 474.151 436.426 477.523 430.425 483.524C424.424 489.525 421.053 497.664 421.053 506.151C421.053 514.638 424.424 522.777 430.425 528.778C436.426 534.78 444.566 538.151 453.052 538.151H453.053C461.54 538.151 469.679 534.78 475.68 528.779C481.681 522.777 485.053 514.638 485.053 506.151C485.053 497.664 481.681 489.525 475.68 483.524C469.679 477.523 461.54 474.151 453.053 474.151Z" fill="#E6E6E6"/>
<path d="M685.391 533.151H517.391C515.27 533.151 513.235 532.308 511.734 530.808C510.234 529.308 509.391 527.273 509.391 525.151C509.391 523.03 510.234 520.995 511.734 519.494C513.235 517.994 515.27 517.151 517.391 517.151H685.391C687.513 517.151 689.548 517.994 691.048 519.494C692.548 520.995 693.391 523.03 693.391 525.151C693.391 527.273 692.548 529.308 691.048 530.808C689.548 532.308 687.513 533.151 685.391 533.151Z" fill="#E6E6E6"/>
<path d="M570.391 499.151H517.391C515.27 499.151 513.235 498.308 511.734 496.808C510.234 495.308 509.391 493.273 509.391 491.151C509.391 489.03 510.234 486.995 511.734 485.494C513.235 483.994 515.27 483.151 517.391 483.151H570.391C572.513 483.151 574.548 483.994 576.048 485.494C577.548 486.995 578.391 489.03 578.391 491.151C578.391 493.273 577.548 495.308 576.048 496.808C574.548 498.308 572.513 499.151 570.391 499.151Z" fill="#E6E6E6"/>
<path d="M453.053 608.151C444.566 608.151 436.426 611.522 430.425 617.524C424.424 623.525 421.053 631.664 421.053 640.151C421.053 648.638 424.424 656.777 430.425 662.778C436.426 668.78 444.566 672.151 453.052 672.151H453.053C461.54 672.151 469.679 668.78 475.68 662.779C481.681 656.777 485.053 648.638 485.053 640.151C485.053 631.664 481.681 623.525 475.68 617.524C469.679 611.523 461.54 608.151 453.053 608.151Z" fill="#E6E6E6"/>
<path d="M685.391 667.151H517.391C515.27 667.151 513.235 666.308 511.734 664.808C510.234 663.308 509.391 661.273 509.391 659.151C509.391 657.03 510.234 654.995 511.734 653.494C513.235 651.994 515.27 651.151 517.391 651.151H685.391C687.513 651.151 689.548 651.994 691.048 653.494C692.548 654.995 693.391 657.03 693.391 659.151C693.391 661.273 692.548 663.308 691.048 664.808C689.548 666.308 687.513 667.151 685.391 667.151Z" fill="#E6E6E6"/>
<path d="M570.391 633.151H517.391C515.27 633.151 513.235 632.308 511.734 630.808C510.234 629.308 509.391 627.273 509.391 625.151C509.391 623.03 510.234 620.995 511.734 619.494C513.235 617.994 515.27 617.151 517.391 617.151H570.391C572.513 617.151 574.548 617.994 576.048 619.494C577.548 620.995 578.391 623.03 578.391 625.151C578.391 627.273 577.548 629.308 576.048 630.808C574.548 632.308 572.513 633.151 570.391 633.151Z" fill="#E6E6E6"/>
<path d="M750.222 449.151H364.222C359.847 449.146 355.653 447.406 352.56 444.313C349.467 441.22 347.727 437.026 347.722 432.651V308.651C347.727 304.277 349.467 300.083 352.56 296.99C355.653 293.896 359.847 292.156 364.222 292.151H750.222C754.597 292.156 758.791 293.896 761.884 296.99C764.977 300.083 766.717 304.277 766.722 308.651V432.651C766.717 437.026 764.977 441.22 761.884 444.313C758.791 447.406 754.597 449.146 750.222 449.151Z" fill="white"/>
<path d="M411.625 416.378C402.582 416.378 393.741 413.696 386.221 408.671C378.702 403.647 372.841 396.505 369.38 388.15C365.919 379.795 365.014 370.601 366.778 361.731C368.542 352.861 372.897 344.713 379.292 338.318C385.687 331.923 393.835 327.568 402.705 325.804C411.575 324.04 420.769 324.945 429.124 328.406C437.479 331.867 444.621 337.728 449.645 345.247C454.67 352.767 457.352 361.608 457.352 370.651C457.338 382.775 452.516 394.397 443.943 402.969C435.371 411.542 423.749 416.364 411.625 416.378V416.378ZM411.625 326.925C402.977 326.925 394.523 329.49 387.333 334.295C380.142 339.099 374.537 345.928 371.228 353.918C367.918 361.908 367.052 370.7 368.74 379.182C370.427 387.664 374.591 395.455 380.706 401.57C386.822 407.686 394.613 411.85 403.095 413.537C411.577 415.225 420.369 414.359 428.359 411.049C436.349 407.74 443.178 402.135 447.982 394.944C452.787 387.754 455.352 379.3 455.352 370.651C455.338 359.059 450.727 347.944 442.53 339.747C434.333 331.549 423.218 326.938 411.625 326.925V326.925Z" fill="#3F3D56"/>
<path d="M736.363 408.389H501.551C500.082 408.391 498.626 408.103 497.269 407.541C495.911 406.98 494.677 406.157 493.637 405.118C492.598 404.08 491.773 402.847 491.211 401.489C490.648 400.132 490.359 398.677 490.359 397.208C490.359 395.739 490.648 394.284 491.211 392.926C491.773 391.569 492.598 390.336 493.637 389.298C494.677 388.259 495.911 387.436 497.269 386.874C498.626 386.313 500.082 386.025 501.551 386.026H736.363C737.833 386.025 739.288 386.313 740.646 386.874C742.003 387.436 743.237 388.259 744.277 389.298C745.316 390.336 746.141 391.569 746.703 392.926C747.266 394.284 747.555 395.739 747.555 397.208C747.555 398.677 747.266 400.132 746.703 401.489C746.141 402.847 745.316 404.08 744.277 405.118C743.237 406.157 742.003 406.98 740.646 407.541C739.288 408.103 737.833 408.391 736.363 408.389V408.389Z" fill="#6C63FF"/>
<path d="M575.629 360.868H501.551C500.082 360.869 498.626 360.581 497.269 360.02C495.911 359.458 494.677 358.635 493.637 357.597C492.598 356.558 491.773 355.325 491.211 353.968C490.648 352.61 490.359 351.155 490.359 349.686C490.359 348.217 490.648 346.762 491.211 345.405C491.773 344.047 492.598 342.814 493.637 341.776C494.677 340.737 495.911 339.914 497.269 339.353C498.626 338.791 500.082 338.503 501.551 338.505H575.629C577.098 338.503 578.553 338.791 579.911 339.353C581.269 339.914 582.503 340.737 583.542 341.776C584.581 342.814 585.406 344.047 585.969 345.405C586.531 346.762 586.821 348.217 586.821 349.686C586.821 351.155 586.531 352.61 585.969 353.968C585.406 355.325 584.581 356.558 583.542 357.597C582.503 358.635 581.269 359.458 579.911 360.02C578.553 360.581 577.098 360.869 575.629 360.868V360.868Z" fill="#6C63FF"/>
<path d="M750.222 449.151H364.222C359.847 449.146 355.653 447.406 352.56 444.313C349.467 441.22 347.727 437.026 347.722 432.651V308.651C347.727 304.277 349.467 300.083 352.56 296.99C355.653 293.896 359.847 292.156 364.222 292.151H750.222C754.597 292.156 758.791 293.896 761.884 296.99C764.977 300.083 766.717 304.277 766.722 308.651V432.651C766.717 437.026 764.977 441.22 761.884 444.313C758.791 447.406 754.597 449.146 750.222 449.151ZM364.222 293.151C360.113 293.156 356.173 294.791 353.267 297.696C350.361 300.602 348.727 304.542 348.722 308.651V432.651C348.727 436.761 350.361 440.701 353.267 443.606C356.173 446.512 360.113 448.147 364.222 448.151H750.222C754.331 448.147 758.271 446.512 761.177 443.606C764.083 440.701 765.717 436.761 765.722 432.651V308.651C765.717 304.542 764.083 300.602 761.177 297.696C758.271 294.791 754.331 293.156 750.222 293.151H364.222Z" fill="#3F3D56"/>
<path d="M919 728.787H1C0.734784 728.787 0.480429 728.681 0.292892 728.494C0.105356 728.306 0 728.052 0 727.787C0 727.521 0.105356 727.267 0.292892 727.08C0.480429 726.892 0.734784 726.787 1 726.787H919C919.265 726.787 919.52 726.892 919.707 727.08C919.895 727.267 920 727.521 920 727.787C920 728.052 919.895 728.306 919.707 728.494C919.52 728.681 919.265 728.787 919 728.787Z" fill="#CCCCCC"/>
</g>
<defs>
<clipPath id="clip0">
<rect width="920" height="728.787" fill="white"/>
</clipPath>
</defs>
</svg>
