<svg width="512" height="512" viewBox="0 0 512 512" fill="none" xmlns="http://www.w3.org/2000/svg">
<circle cx="256" cy="256" r="256" fill="#00B2FF"/>
<circle cx="256" cy="256" r="256" fill="url(#paint0_linear)"/>
<path d="M183.848 153.576C181.896 153.576 180.088 153.208 178.424 152.472C176.76 151.736 175.304 150.68 174.056 149.304C172.84 147.896 171.88 146.184 171.176 144.168C170.472 142.12 170.12 139.816 170.12 137.256C170.12 134.728 170.472 132.456 171.176 130.44C171.88 128.424 172.856 126.712 174.104 125.304C175.352 123.896 176.84 122.824 178.568 122.088C180.296 121.32 182.184 120.936 184.232 120.936C186.12 120.936 187.784 121.32 189.224 122.088C190.696 122.856 191.896 123.752 192.824 124.776L190.568 127.32C189.736 126.456 188.808 125.768 187.784 125.256C186.76 124.712 185.576 124.44 184.232 124.44C182.728 124.44 181.352 124.744 180.104 125.352C178.888 125.928 177.848 126.776 176.984 127.896C176.12 128.984 175.448 130.312 174.968 131.88C174.488 133.448 174.248 135.208 174.248 137.16C174.248 139.144 174.488 140.936 174.968 142.536C175.448 144.104 176.12 145.448 176.984 146.568C177.848 147.688 178.888 148.552 180.104 149.16C181.352 149.768 182.728 150.072 184.232 150.072C185.672 150.072 186.952 149.768 188.072 149.16C189.224 148.552 190.312 147.688 191.336 146.568L193.592 149.016C192.344 150.456 190.936 151.576 189.368 152.376C187.8 153.176 185.96 153.576 183.848 153.576ZM199.573 153V121.512H203.605V134.712H216.757V121.512H220.789V153H216.757V138.168H203.605V153H199.573ZM235.699 135.384L234.211 140.184H243.619L242.131 135.384C241.587 133.624 241.043 131.88 240.499 130.152C239.987 128.392 239.491 126.6 239.011 124.776H238.819C238.307 126.6 237.795 128.392 237.283 130.152C236.771 131.88 236.243 133.624 235.699 135.384ZM226.099 153L236.707 121.512H241.219L251.827 153H247.603L244.627 143.4H233.203L230.179 153H226.099ZM265.728 153V124.872H255.36V121.512H280.128V124.872H269.76V153H265.728ZM286.925 153V121.512H296.717C298.317 121.512 299.789 121.672 301.133 121.992C302.477 122.28 303.629 122.776 304.589 123.48C305.581 124.184 306.349 125.096 306.893 126.216C307.437 127.336 307.709 128.712 307.709 130.344C307.709 132.808 307.069 134.776 305.789 136.248C304.509 137.72 302.797 138.728 300.653 139.272L308.669 153H304.109L296.525 139.704H290.909V153H286.925ZM290.909 136.44H296.141C298.605 136.44 300.477 135.944 301.757 134.952C303.069 133.928 303.725 132.392 303.725 130.344C303.725 128.264 303.069 126.808 301.757 125.976C300.477 125.144 298.605 124.728 296.141 124.728H290.909V136.44ZM316.378 153V121.512H335.866V124.872H320.41V134.76H333.466V138.168H320.41V149.592H336.346V153H316.378Z" fill="black"/>
<path d="M208.052 193V181.192H215.36V182.452H209.564V186.16H214.46V187.438H209.564V191.722H215.54V193H208.052ZM222.373 193.216C221.509 193.216 220.711 193.084 219.979 192.82C219.247 192.544 218.611 192.22 218.071 191.848L218.755 190.876C219.259 191.236 219.811 191.524 220.411 191.74C221.023 191.956 221.737 192.064 222.553 192.064C223.297 192.064 223.849 191.932 224.209 191.668C224.581 191.392 224.767 191.068 224.767 190.696C224.767 190.528 224.737 190.372 224.677 190.228C224.617 190.084 224.485 189.946 224.281 189.814C224.089 189.682 223.813 189.556 223.453 189.436C223.093 189.316 222.619 189.196 222.031 189.076C220.891 188.836 220.033 188.518 219.457 188.122C218.893 187.714 218.611 187.18 218.611 186.52C218.611 186.172 218.689 185.848 218.845 185.548C219.001 185.236 219.229 184.972 219.529 184.756C219.841 184.528 220.219 184.354 220.663 184.234C221.119 184.102 221.647 184.036 222.247 184.036C222.919 184.036 223.567 184.15 224.191 184.378C224.815 184.594 225.343 184.852 225.775 185.152L225.055 186.106C224.647 185.83 224.197 185.608 223.705 185.44C223.213 185.272 222.685 185.188 222.121 185.188C221.377 185.188 220.855 185.314 220.555 185.566C220.255 185.818 220.105 186.112 220.105 186.448C220.105 186.832 220.303 187.126 220.699 187.33C221.095 187.522 221.743 187.714 222.643 187.906C223.375 188.062 223.975 188.23 224.443 188.41C224.911 188.578 225.277 188.77 225.541 188.986C225.817 189.202 226.003 189.442 226.099 189.706C226.207 189.97 226.261 190.27 226.261 190.606C226.261 190.966 226.177 191.302 226.009 191.614C225.841 191.926 225.589 192.202 225.253 192.442C224.929 192.682 224.521 192.868 224.029 193C223.549 193.144 222.997 193.216 222.373 193.216ZM234.678 193.216C234.042 193.216 233.508 193.132 233.076 192.964C232.644 192.784 232.296 192.538 232.032 192.226C231.768 191.902 231.576 191.518 231.456 191.074C231.348 190.63 231.294 190.138 231.294 189.598V185.458H228.828V184.342L231.348 184.252L231.546 181.444H232.77V184.252H237.072V185.458H232.77V189.616C232.77 190.012 232.806 190.36 232.878 190.66C232.95 190.948 233.07 191.194 233.238 191.398C233.406 191.602 233.634 191.758 233.922 191.866C234.21 191.962 234.564 192.01 234.984 192.01C235.404 192.01 235.782 191.974 236.118 191.902C236.454 191.83 236.778 191.734 237.09 191.614L237.414 192.694C237.018 192.838 236.598 192.958 236.154 193.054C235.722 193.162 235.23 193.216 234.678 193.216ZM243.779 193.216C243.371 193.216 243.023 193.078 242.735 192.802C242.459 192.526 242.321 192.16 242.321 191.704C242.321 191.248 242.459 190.882 242.735 190.606C243.023 190.318 243.371 190.174 243.779 190.174C244.187 190.174 244.529 190.318 244.805 190.606C245.093 190.882 245.237 191.248 245.237 191.704C245.237 192.16 245.093 192.526 244.805 192.802C244.529 193.078 244.187 193.216 243.779 193.216ZM261.279 193V192.118C262.251 191.254 263.109 190.474 263.853 189.778C264.609 189.082 265.239 188.446 265.743 187.87C266.259 187.282 266.649 186.736 266.913 186.232C267.177 185.728 267.309 185.236 267.309 184.756C267.309 184.096 267.105 183.556 266.697 183.136C266.289 182.716 265.659 182.506 264.807 182.506C264.267 182.506 263.763 182.644 263.295 182.92C262.839 183.184 262.425 183.508 262.053 183.892L261.207 183.046C261.723 182.518 262.275 182.098 262.863 181.786C263.463 181.462 264.171 181.3 264.987 181.3C265.563 181.3 266.079 181.384 266.535 181.552C267.003 181.708 267.399 181.936 267.723 182.236C268.047 182.524 268.293 182.878 268.461 183.298C268.641 183.718 268.731 184.18 268.731 184.684C268.731 185.224 268.599 185.77 268.335 186.322C268.083 186.862 267.723 187.426 267.255 188.014C266.787 188.59 266.229 189.196 265.581 189.832C264.933 190.456 264.219 191.122 263.439 191.83C263.799 191.806 264.159 191.782 264.519 191.758C264.879 191.734 265.233 191.722 265.581 191.722H269.361V193H261.279ZM276.158 193.216C274.874 193.216 273.866 192.7 273.134 191.668C272.402 190.624 272.036 189.142 272.036 187.222C272.036 185.29 272.402 183.82 273.134 182.812C273.866 181.804 274.874 181.3 276.158 181.3C277.442 181.3 278.45 181.804 279.182 182.812C279.914 183.82 280.28 185.29 280.28 187.222C280.28 189.142 279.914 190.624 279.182 191.668C278.45 192.7 277.442 193.216 276.158 193.216ZM276.158 192.028C276.962 192.028 277.616 191.638 278.12 190.858C278.636 190.078 278.894 188.866 278.894 187.222C278.894 186.394 278.828 185.686 278.696 185.098C278.564 184.498 278.372 184.006 278.12 183.622C277.88 183.226 277.592 182.938 277.256 182.758C276.92 182.578 276.554 182.488 276.158 182.488C275.762 182.488 275.396 182.578 275.06 182.758C274.724 182.938 274.43 183.226 274.178 183.622C273.938 184.006 273.752 184.498 273.62 185.098C273.488 185.686 273.422 186.394 273.422 187.222C273.422 188.866 273.674 190.078 274.178 190.858C274.694 191.638 275.354 192.028 276.158 192.028ZM276.158 188.302C275.858 188.302 275.594 188.2 275.366 187.996C275.15 187.78 275.042 187.48 275.042 187.096C275.042 186.724 275.15 186.436 275.366 186.232C275.594 186.016 275.858 185.908 276.158 185.908C276.458 185.908 276.716 186.016 276.932 186.232C277.16 186.436 277.274 186.724 277.274 187.096C277.274 187.48 277.16 187.78 276.932 187.996C276.716 188.2 276.458 188.302 276.158 188.302ZM282.865 193V192.118C283.837 191.254 284.695 190.474 285.439 189.778C286.195 189.082 286.825 188.446 287.329 187.87C287.845 187.282 288.235 186.736 288.499 186.232C288.763 185.728 288.895 185.236 288.895 184.756C288.895 184.096 288.691 183.556 288.283 183.136C287.875 182.716 287.245 182.506 286.393 182.506C285.853 182.506 285.349 182.644 284.881 182.92C284.425 183.184 284.011 183.508 283.639 183.892L282.793 183.046C283.309 182.518 283.861 182.098 284.449 181.786C285.049 181.462 285.757 181.3 286.573 181.3C287.149 181.3 287.665 181.384 288.121 181.552C288.589 181.708 288.985 181.936 289.309 182.236C289.633 182.524 289.879 182.878 290.047 183.298C290.227 183.718 290.317 184.18 290.317 184.684C290.317 185.224 290.185 185.77 289.921 186.322C289.669 186.862 289.309 187.426 288.841 188.014C288.373 188.59 287.815 189.196 287.167 189.832C286.519 190.456 285.805 191.122 285.025 191.83C285.385 191.806 285.745 191.782 286.105 191.758C286.465 191.734 286.819 191.722 287.167 191.722H290.947V193H282.865ZM294.09 193V191.776H297.402V183.316H294.828V182.362C295.512 182.266 296.082 182.152 296.538 182.02C296.994 181.888 297.408 181.72 297.78 181.516H298.878V191.776H301.884V193H294.09Z" fill="black"/>
<circle cx="256" cy="337" r="100" fill="#E48D8D"/>
<path d="M302.757 405.243C305.101 407.586 308.899 407.586 311.243 405.243L349.426 367.059C351.77 364.716 351.77 360.917 349.426 358.574C347.083 356.23 343.284 356.23 340.941 358.574L307 392.515L273.059 358.574C270.716 356.23 266.917 356.23 264.574 358.574C262.23 360.917 262.23 364.716 264.574 367.059L302.757 405.243ZM301 272L301 401H313L313 272H301Z" fill="black"/>
<path d="M210.243 267.757C207.899 265.414 204.101 265.414 201.757 267.757L163.574 305.941C161.23 308.284 161.23 312.083 163.574 314.426C165.917 316.77 169.716 316.77 172.059 314.426L206 280.485L239.941 314.426C242.284 316.77 246.083 316.77 248.426 314.426C250.77 312.083 250.77 308.284 248.426 305.941L210.243 267.757ZM212 401L212 272H200L200 401H212Z" fill="black"/>
<path d="M203.4 472.096C202.829 472.096 202.381 471.867 202.056 471.408C201.731 470.944 201.568 470.285 201.568 469.432C201.568 468.573 201.731 467.92 202.056 467.472C202.381 467.024 202.829 466.8 203.4 466.8C203.971 466.8 204.419 467.024 204.744 467.472C205.069 467.92 205.232 468.573 205.232 469.432C205.232 470.285 205.069 470.944 204.744 471.408C204.419 471.867 203.971 472.096 203.4 472.096ZM203.4 471.568C203.757 471.568 204.048 471.395 204.272 471.048C204.501 470.701 204.616 470.163 204.616 469.432C204.616 469.064 204.587 468.749 204.528 468.488C204.469 468.221 204.384 468.003 204.272 467.832C204.165 467.656 204.037 467.528 203.888 467.448C203.739 467.368 203.576 467.328 203.4 467.328C203.224 467.328 203.061 467.368 202.912 467.448C202.763 467.528 202.632 467.656 202.52 467.832C202.413 468.003 202.331 468.221 202.272 468.488C202.213 468.749 202.184 469.064 202.184 469.432C202.184 470.163 202.296 470.701 202.52 471.048C202.749 471.395 203.043 471.568 203.4 471.568ZM203.4 469.912C203.267 469.912 203.149 469.867 203.048 469.776C202.952 469.68 202.904 469.547 202.904 469.376C202.904 469.211 202.952 469.083 203.048 468.992C203.149 468.896 203.267 468.848 203.4 468.848C203.533 468.848 203.648 468.896 203.744 468.992C203.845 469.083 203.896 469.211 203.896 469.376C203.896 469.547 203.845 469.68 203.744 469.776C203.648 469.867 203.533 469.912 203.4 469.912ZM208.045 469.52C208.248 469.52 208.464 469.467 208.693 469.36C208.922 469.253 209.141 469.08 209.349 468.84C209.296 468.339 209.157 467.96 208.933 467.704C208.714 467.448 208.416 467.32 208.037 467.32C207.882 467.32 207.738 467.347 207.605 467.4C207.477 467.453 207.365 467.531 207.269 467.632C207.173 467.728 207.096 467.845 207.037 467.984C206.984 468.123 206.957 468.275 206.957 468.44C206.957 468.792 207.048 469.061 207.229 469.248C207.416 469.429 207.688 469.52 208.045 469.52ZM207.853 472.096C207.538 472.096 207.264 472.045 207.029 471.944C206.8 471.843 206.6 471.715 206.429 471.56L206.797 471.144C206.925 471.267 207.077 471.365 207.253 471.44C207.429 471.515 207.616 471.552 207.813 471.552C208.016 471.552 208.208 471.515 208.389 471.44C208.576 471.365 208.738 471.243 208.877 471.072C209.021 470.896 209.136 470.669 209.221 470.392C209.306 470.115 209.354 469.771 209.365 469.36C209.157 469.563 208.928 469.723 208.677 469.84C208.432 469.957 208.178 470.016 207.917 470.016C207.682 470.016 207.466 469.984 207.269 469.92C207.077 469.851 206.912 469.752 206.773 469.624C206.634 469.491 206.525 469.325 206.445 469.128C206.37 468.931 206.333 468.701 206.333 468.44C206.333 468.195 206.378 467.973 206.469 467.776C206.56 467.573 206.682 467.4 206.837 467.256C206.997 467.112 207.178 467 207.381 466.92C207.589 466.84 207.805 466.8 208.029 466.8C208.306 466.8 208.565 466.851 208.805 466.952C209.045 467.053 209.253 467.208 209.429 467.416C209.605 467.619 209.741 467.875 209.837 468.184C209.938 468.488 209.989 468.845 209.989 469.256C209.989 469.768 209.928 470.205 209.805 470.568C209.688 470.925 209.53 471.219 209.333 471.448C209.136 471.672 208.909 471.837 208.653 471.944C208.397 472.045 208.13 472.096 207.853 472.096ZM212.842 469.52C213.044 469.52 213.26 469.467 213.49 469.36C213.719 469.253 213.938 469.08 214.146 468.84C214.092 468.339 213.954 467.96 213.73 467.704C213.511 467.448 213.212 467.32 212.834 467.32C212.679 467.32 212.535 467.347 212.402 467.4C212.274 467.453 212.162 467.531 212.066 467.632C211.97 467.728 211.892 467.845 211.834 467.984C211.78 468.123 211.754 468.275 211.754 468.44C211.754 468.792 211.844 469.061 212.026 469.248C212.212 469.429 212.484 469.52 212.842 469.52ZM212.65 472.096C212.335 472.096 212.06 472.045 211.826 471.944C211.596 471.843 211.396 471.715 211.226 471.56L211.594 471.144C211.722 471.267 211.874 471.365 212.05 471.44C212.226 471.515 212.412 471.552 212.61 471.552C212.812 471.552 213.004 471.515 213.186 471.44C213.372 471.365 213.535 471.243 213.674 471.072C213.818 470.896 213.932 470.669 214.018 470.392C214.103 470.115 214.151 469.771 214.162 469.36C213.954 469.563 213.724 469.723 213.474 469.84C213.228 469.957 212.975 470.016 212.714 470.016C212.479 470.016 212.263 469.984 212.066 469.92C211.874 469.851 211.708 469.752 211.57 469.624C211.431 469.491 211.322 469.325 211.242 469.128C211.167 468.931 211.13 468.701 211.13 468.44C211.13 468.195 211.175 467.973 211.266 467.776C211.356 467.573 211.479 467.4 211.634 467.256C211.794 467.112 211.975 467 212.178 466.92C212.386 466.84 212.602 466.8 212.826 466.8C213.103 466.8 213.362 466.851 213.602 466.952C213.842 467.053 214.05 467.208 214.226 467.416C214.402 467.619 214.538 467.875 214.634 468.184C214.735 468.488 214.786 468.845 214.786 469.256C214.786 469.768 214.724 470.205 214.602 470.568C214.484 470.925 214.327 471.219 214.13 471.448C213.932 471.672 213.706 471.837 213.45 471.944C213.194 472.045 212.927 472.096 212.65 472.096ZM220.964 472V471.456H222.436V467.696H221.292V467.272C221.596 467.229 221.849 467.179 222.052 467.12C222.254 467.061 222.438 466.987 222.604 466.896H223.092V471.456H224.428V472H220.964ZM227.384 472.096C226.814 472.096 226.366 471.867 226.04 471.408C225.715 470.944 225.552 470.285 225.552 469.432C225.552 468.573 225.715 467.92 226.04 467.472C226.366 467.024 226.814 466.8 227.384 466.8C227.955 466.8 228.403 467.024 228.728 467.472C229.054 467.92 229.216 468.573 229.216 469.432C229.216 470.285 229.054 470.944 228.728 471.408C228.403 471.867 227.955 472.096 227.384 472.096ZM227.384 471.568C227.742 471.568 228.032 471.395 228.256 471.048C228.486 470.701 228.6 470.163 228.6 469.432C228.6 469.064 228.571 468.749 228.512 468.488C228.454 468.221 228.368 468.003 228.256 467.832C228.15 467.656 228.022 467.528 227.872 467.448C227.723 467.368 227.56 467.328 227.384 467.328C227.208 467.328 227.046 467.368 226.896 467.448C226.747 467.528 226.616 467.656 226.504 467.832C226.398 468.003 226.315 468.221 226.256 468.488C226.198 468.749 226.168 469.064 226.168 469.432C226.168 470.163 226.28 470.701 226.504 471.048C226.734 471.395 227.027 471.568 227.384 471.568ZM227.384 469.912C227.251 469.912 227.134 469.867 227.032 469.776C226.936 469.68 226.888 469.547 226.888 469.376C226.888 469.211 226.936 469.083 227.032 468.992C227.134 468.896 227.251 468.848 227.384 468.848C227.518 468.848 227.632 468.896 227.728 468.992C227.83 469.083 227.88 469.211 227.88 469.376C227.88 469.547 227.83 469.68 227.728 469.776C227.632 469.867 227.518 469.912 227.384 469.912ZM232.725 472V470.592H230.093V470.152L232.645 466.896H233.349V470.064H234.141V470.592H233.349V472H232.725ZM230.821 470.064H232.725V468.48C232.731 468.341 232.736 468.192 232.741 468.032C232.747 467.867 232.755 467.715 232.765 467.576H232.725C232.645 467.699 232.56 467.824 232.469 467.952C232.379 468.075 232.291 468.197 232.205 468.32L230.821 470.064ZM241.775 472.096C241.204 472.096 240.756 471.867 240.431 471.408C240.106 470.944 239.943 470.285 239.943 469.432C239.943 468.573 240.106 467.92 240.431 467.472C240.756 467.024 241.204 466.8 241.775 466.8C242.346 466.8 242.794 467.024 243.119 467.472C243.444 467.92 243.607 468.573 243.607 469.432C243.607 470.285 243.444 470.944 243.119 471.408C242.794 471.867 242.346 472.096 241.775 472.096ZM241.775 471.568C242.132 471.568 242.423 471.395 242.647 471.048C242.876 470.701 242.991 470.163 242.991 469.432C242.991 469.064 242.962 468.749 242.903 468.488C242.844 468.221 242.759 468.003 242.647 467.832C242.54 467.656 242.412 467.528 242.263 467.448C242.114 467.368 241.951 467.328 241.775 467.328C241.599 467.328 241.436 467.368 241.287 467.448C241.138 467.528 241.007 467.656 240.895 467.832C240.788 468.003 240.706 468.221 240.647 468.488C240.588 468.749 240.559 469.064 240.559 469.432C240.559 470.163 240.671 470.701 240.895 471.048C241.124 471.395 241.418 471.568 241.775 471.568ZM241.775 469.912C241.642 469.912 241.524 469.867 241.423 469.776C241.327 469.68 241.279 469.547 241.279 469.376C241.279 469.211 241.327 469.083 241.423 468.992C241.524 468.896 241.642 468.848 241.775 468.848C241.908 468.848 242.023 468.896 242.119 468.992C242.22 469.083 242.271 469.211 242.271 469.376C242.271 469.547 242.22 469.68 242.119 469.776C242.023 469.867 241.908 469.912 241.775 469.912ZM246.42 469.52C246.623 469.52 246.839 469.467 247.068 469.36C247.297 469.253 247.516 469.08 247.724 468.84C247.671 468.339 247.532 467.96 247.308 467.704C247.089 467.448 246.791 467.32 246.412 467.32C246.257 467.32 246.113 467.347 245.98 467.4C245.852 467.453 245.74 467.531 245.644 467.632C245.548 467.728 245.471 467.845 245.412 467.984C245.359 468.123 245.332 468.275 245.332 468.44C245.332 468.792 245.423 469.061 245.604 469.248C245.791 469.429 246.063 469.52 246.42 469.52ZM246.228 472.096C245.913 472.096 245.639 472.045 245.404 471.944C245.175 471.843 244.975 471.715 244.804 471.56L245.172 471.144C245.3 471.267 245.452 471.365 245.628 471.44C245.804 471.515 245.991 471.552 246.188 471.552C246.391 471.552 246.583 471.515 246.764 471.44C246.951 471.365 247.113 471.243 247.252 471.072C247.396 470.896 247.511 470.669 247.596 470.392C247.681 470.115 247.729 469.771 247.74 469.36C247.532 469.563 247.303 469.723 247.052 469.84C246.807 469.957 246.553 470.016 246.292 470.016C246.057 470.016 245.841 469.984 245.644 469.92C245.452 469.851 245.287 469.752 245.148 469.624C245.009 469.491 244.9 469.325 244.82 469.128C244.745 468.931 244.708 468.701 244.708 468.44C244.708 468.195 244.753 467.973 244.844 467.776C244.935 467.573 245.057 467.4 245.212 467.256C245.372 467.112 245.553 467 245.756 466.92C245.964 466.84 246.18 466.8 246.404 466.8C246.681 466.8 246.94 466.851 247.18 466.952C247.42 467.053 247.628 467.208 247.804 467.416C247.98 467.619 248.116 467.875 248.212 468.184C248.313 468.488 248.364 468.845 248.364 469.256C248.364 469.768 248.303 470.205 248.18 470.568C248.063 470.925 247.905 471.219 247.708 471.448C247.511 471.672 247.284 471.837 247.028 471.944C246.772 472.045 246.505 472.096 246.228 472.096ZM250.777 472C250.798 471.515 250.843 471.075 250.913 470.68C250.982 470.28 251.083 469.901 251.217 469.544C251.35 469.187 251.518 468.84 251.721 468.504C251.929 468.168 252.179 467.821 252.473 467.464H249.529V466.896H253.225V467.304C252.889 467.688 252.611 468.056 252.393 468.408C252.174 468.76 251.998 469.12 251.865 469.488C251.731 469.851 251.635 470.235 251.577 470.64C251.518 471.045 251.481 471.499 251.465 472H250.777ZM259.339 472V471.456H260.811V467.696H259.667V467.272C259.971 467.229 260.224 467.179 260.427 467.12C260.629 467.061 260.813 466.987 260.979 466.896H261.467V471.456H262.803V472H259.339ZM264.135 472V471.456H265.607V467.696H264.463V467.272C264.767 467.229 265.021 467.179 265.223 467.12C265.426 467.061 265.61 466.987 265.775 466.896H266.263V471.456H267.599V472H264.135ZM270.724 472.096C270.447 472.096 270.188 472.045 269.948 471.944C269.714 471.843 269.508 471.691 269.332 471.488C269.156 471.28 269.018 471.024 268.916 470.72C268.82 470.411 268.772 470.051 268.772 469.64C268.772 469.128 268.831 468.693 268.948 468.336C269.066 467.973 269.223 467.68 269.42 467.456C269.618 467.227 269.844 467.061 270.1 466.96C270.362 466.853 270.631 466.8 270.908 466.8C271.223 466.8 271.495 466.853 271.724 466.96C271.959 467.061 272.162 467.189 272.332 467.344L271.964 467.752C271.831 467.629 271.676 467.533 271.5 467.464C271.324 467.389 271.14 467.352 270.948 467.352C270.746 467.352 270.551 467.389 270.364 467.464C270.178 467.539 270.012 467.661 269.868 467.832C269.73 468.003 269.615 468.229 269.524 468.512C269.439 468.789 269.394 469.133 269.388 469.544C269.596 469.341 269.826 469.181 270.076 469.064C270.327 468.941 270.58 468.88 270.836 468.88C271.071 468.88 271.284 468.915 271.476 468.984C271.674 469.048 271.842 469.147 271.98 469.28C272.124 469.408 272.234 469.571 272.308 469.768C272.388 469.965 272.428 470.195 272.428 470.456C272.428 470.701 272.38 470.925 272.284 471.128C272.194 471.325 272.071 471.496 271.916 471.64C271.762 471.784 271.58 471.896 271.372 471.976C271.17 472.056 270.954 472.096 270.724 472.096ZM270.724 471.576C270.874 471.576 271.015 471.549 271.148 471.496C271.282 471.443 271.396 471.368 271.492 471.272C271.588 471.171 271.663 471.053 271.716 470.92C271.775 470.781 271.804 470.627 271.804 470.456C271.804 470.104 271.711 469.837 271.524 469.656C271.338 469.469 271.068 469.376 270.716 469.376C270.514 469.376 270.295 469.429 270.06 469.536C269.831 469.643 269.615 469.819 269.412 470.064C269.46 470.56 269.596 470.936 269.82 471.192C270.05 471.448 270.351 471.576 270.724 471.576ZM278.526 472V471.456H279.998V467.696H278.854V467.272C279.158 467.229 279.411 467.179 279.614 467.12C279.817 467.061 280.001 466.987 280.166 466.896H280.654V471.456H281.99V472H278.526ZM283.323 472V471.456H284.795V467.696H283.651V467.272C283.955 467.229 284.208 467.179 284.411 467.12C284.614 467.061 284.798 466.987 284.963 466.896H285.451V471.456H286.787V472H283.323ZM290.288 472V470.592H287.656V470.152L290.208 466.896H290.912V470.064H291.704V470.592H290.912V472H290.288ZM288.384 470.064H290.288V468.48C290.293 468.341 290.298 468.192 290.304 468.032C290.309 467.867 290.317 467.715 290.328 467.576H290.288C290.208 467.699 290.122 467.824 290.032 467.952C289.941 468.075 289.853 468.197 289.768 468.32L288.384 470.064ZM297.714 472V471.456H299.186V467.696H298.042V467.272C298.346 467.229 298.599 467.179 298.802 467.12C299.004 467.061 299.188 466.987 299.354 466.896H299.842V471.456H301.178V472H297.714ZM304.134 472.096C303.564 472.096 303.116 471.867 302.79 471.408C302.465 470.944 302.302 470.285 302.302 469.432C302.302 468.573 302.465 467.92 302.79 467.472C303.116 467.024 303.564 466.8 304.134 466.8C304.705 466.8 305.153 467.024 305.478 467.472C305.804 467.92 305.966 468.573 305.966 469.432C305.966 470.285 305.804 470.944 305.478 471.408C305.153 471.867 304.705 472.096 304.134 472.096ZM304.134 471.568C304.492 471.568 304.782 471.395 305.006 471.048C305.236 470.701 305.35 470.163 305.35 469.432C305.35 469.064 305.321 468.749 305.262 468.488C305.204 468.221 305.118 468.003 305.006 467.832C304.9 467.656 304.772 467.528 304.622 467.448C304.473 467.368 304.31 467.328 304.134 467.328C303.958 467.328 303.796 467.368 303.646 467.448C303.497 467.528 303.366 467.656 303.254 467.832C303.148 468.003 303.065 468.221 303.006 468.488C302.948 468.749 302.918 469.064 302.918 469.432C302.918 470.163 303.03 470.701 303.254 471.048C303.484 471.395 303.777 471.568 304.134 471.568ZM304.134 469.912C304.001 469.912 303.884 469.867 303.782 469.776C303.686 469.68 303.638 469.547 303.638 469.376C303.638 469.211 303.686 469.083 303.782 468.992C303.884 468.896 304.001 468.848 304.134 468.848C304.268 468.848 304.382 468.896 304.478 468.992C304.58 469.083 304.63 469.211 304.63 469.376C304.63 469.547 304.58 469.68 304.478 469.776C304.382 469.867 304.268 469.912 304.134 469.912ZM307.307 472V471.456H308.779V467.696H307.635V467.272C307.939 467.229 308.193 467.179 308.395 467.12C308.598 467.061 308.782 466.987 308.947 466.896H309.435V471.456H310.771V472H307.307Z" fill="black"/>
<defs>
<linearGradient id="paint0_linear" x1="409" y1="53" x2="153" y2="419" gradientUnits="userSpaceOnUse">
<stop stop-color="#FFCDCD"/>
<stop offset="1" stop-color="white" stop-opacity="0"/>
</linearGradient>
</defs>
</svg>
