<svg xmlns="http://www.w3.org/2000/svg" width="512" height="512" fill="none" viewBox="0 0 512 512"><circle cx="256" cy="256" r="256" fill="#00B2FF"/><circle cx="256" cy="256" r="256" fill="url(#paint0_linear)"/><path fill="#000" d="M273.85 384.2C259.617 384.2 246.433 381.517 234.3 376.15C222.167 370.783 211.55 363.083 202.45 353.05C193.583 342.783 186.583 330.3 181.45 315.6C176.317 300.667 173.75 283.867 173.75 265.2C173.75 246.767 176.317 230.2 181.45 215.5C186.583 200.8 193.7 188.317 202.8 178.05C211.9 167.783 222.75 159.967 235.35 154.6C247.95 149 261.717 146.2 276.65 146.2C290.417 146.2 302.55 149 313.05 154.6C323.783 160.2 332.533 166.733 339.3 174.2L322.85 192.75C316.783 186.45 310.017 181.433 302.55 177.7C295.083 173.733 286.45 171.75 276.65 171.75C265.683 171.75 255.65 173.967 246.55 178.4C237.683 182.6 230.1 188.783 223.8 196.95C217.5 204.883 212.6 214.567 209.1 226C205.6 237.433 203.85 250.267 203.85 264.5C203.85 278.967 205.6 292.033 209.1 303.7C212.6 315.133 217.5 324.933 223.8 333.1C230.1 341.267 237.683 347.567 246.55 352C255.65 356.433 265.683 358.65 276.65 358.65C287.15 358.65 296.483 356.433 304.65 352C313.05 347.567 320.983 341.267 328.45 333.1L344.9 350.95C335.8 361.45 325.533 369.617 314.1 375.45C302.667 381.283 289.25 384.2 273.85 384.2Z"/><defs><linearGradient id="paint0_linear" x1="409" x2="153" y1="53" y2="419" gradientUnits="userSpaceOnUse"><stop stop-color="#FFCDCD"/><stop offset="1" stop-color="#fff" stop-opacity="0"/></linearGradient></defs></svg>