<svg width="512" height="512" viewBox="0 0 512 512" fill="none" xmlns="http://www.w3.org/2000/svg">
<circle cx="256" cy="256" r="256" fill="#00B2FF"/>
<circle cx="256" cy="256" r="256" fill="url(#paint0_linear)"/>
<path d="M133.08 256.96C129.827 256.96 126.813 256.347 124.04 255.12C121.267 253.893 118.84 252.133 116.76 249.84C114.733 247.493 113.133 244.64 111.96 241.28C110.787 237.867 110.2 234.027 110.2 229.76C110.2 225.547 110.787 221.76 111.96 218.4C113.133 215.04 114.76 212.187 116.84 209.84C118.92 207.493 121.4 205.707 124.28 204.48C127.16 203.2 130.307 202.56 133.72 202.56C136.867 202.56 139.64 203.2 142.04 204.48C144.493 205.76 146.493 207.253 148.04 208.96L144.28 213.2C142.893 211.76 141.347 210.613 139.64 209.76C137.933 208.853 135.96 208.4 133.72 208.4C131.213 208.4 128.92 208.907 126.84 209.92C124.813 210.88 123.08 212.293 121.64 214.16C120.2 215.973 119.08 218.187 118.28 220.8C117.48 223.413 117.08 226.347 117.08 229.6C117.08 232.907 117.48 235.893 118.28 238.56C119.08 241.173 120.2 243.413 121.64 245.28C123.08 247.147 124.813 248.587 126.84 249.6C128.92 250.613 131.213 251.12 133.72 251.12C136.12 251.12 138.253 250.613 140.12 249.6C142.04 248.587 143.853 247.147 145.56 245.28L149.32 249.36C147.24 251.76 144.893 253.627 142.28 254.96C139.667 256.293 136.6 256.96 133.08 256.96ZM159.289 256V203.52H166.009V225.52H187.929V203.52H194.649V256H187.929V231.28H166.009V256H159.289ZM219.498 226.64L217.018 234.64H232.698L230.218 226.64C229.311 223.707 228.404 220.8 227.498 217.92C226.644 214.987 225.818 212 225.018 208.96H224.698C223.844 212 222.991 214.987 222.138 217.92C221.284 220.8 220.404 223.707 219.498 226.64ZM203.498 256L221.178 203.52H228.698L246.378 256H239.338L234.378 240H215.338L210.298 256H203.498ZM269.546 256V209.12H252.266V203.52H293.546V209.12H276.266V256H269.546ZM304.875 256V203.52H321.195C323.862 203.52 326.315 203.787 328.555 204.32C330.795 204.8 332.715 205.627 334.315 206.8C335.968 207.973 337.248 209.493 338.155 211.36C339.062 213.227 339.515 215.52 339.515 218.24C339.515 222.347 338.448 225.627 336.315 228.08C334.182 230.533 331.328 232.213 327.755 233.12L341.115 256H333.515L320.875 233.84H311.515V256H304.875ZM311.515 228.4H320.235C324.342 228.4 327.462 227.573 329.595 225.92C331.782 224.213 332.875 221.653 332.875 218.24C332.875 214.773 331.782 212.347 329.595 210.96C327.462 209.573 324.342 208.88 320.235 208.88H311.515V228.4ZM353.964 256V203.52H386.444V209.12H360.684V225.6H382.444V231.28H360.684V250.32H387.244V256H353.964Z" fill="black"/>
<defs>
<linearGradient id="paint0_linear" x1="409" y1="53" x2="153" y2="419" gradientUnits="userSpaceOnUse">
<stop stop-color="#FFCDCD"/>
<stop offset="1" stop-color="white" stop-opacity="0"/>
</linearGradient>
</defs>
</svg>
